# xmcd
#
# Track frame offsets: 
#        150
#        26955
#        46928
#        67515
#        81977
#        97730
#        118294
#        136326
#        155054
#        172098
#        185848
#        206100
#        222494
#        243256
#        263669
#        285019
#
# Disc length: 4126 seconds
#
# Revision: 0
# Processed by: cddbd v1.5.2PL0 Copyright (c) Steve Scherf et al.
# Submitted via: ExactAudioCopy v0.99pb1
#
DISCID=e7101c10
DTITLE=Variuos Artists - Maximum Mojo-Electro-Fi Records 10th Annivers
DTITLE=ary Collection
DYEAR=2007
DGENRE=Blues
TTITLE0=Slow Down -  Snooky Pryor
TTITLE1=I'm Tired Of Your Jive - Sam Myers
TTITLE2=Snap - Mel Brown
TTITLE3=Drinkin' Cheap Champagne - Enrico Crivellaro
TTITLE4=Me And Piney Brown - Billy Boy Arnold
TTITLE5=Back In Love Again - Finis Tasby
TTITLE6=Wig City - Gary Primich
TTITLE7=Work That Stuff - Paul Oscher
TTITLE8=Ramblin' - Miss Angel
TTITLE9=Early In The Morning - Curley Bridges
TTITLE10=You're So Special - Little Mack Simmons
TTITLE11=Beepin' On Me - Mark Hummel
TTITLE12=Out In The Cold - Lil' Dave Thompson
TTITLE13=Driving The Backroads - Morgan Davis
TTITLE14=Commit A Crime - Fathead
TTITLE15=Lonesome Graveyard Blues - Harmonica Shah
EXTD=
EXTT0=
EXTT1=
EXTT2=
EXTT3=
EXTT4=
EXTT5=
EXTT6=
EXTT7=
EXTT8=
EXTT9=
EXTT10=
EXTT11=
EXTT12=
EXTT13=
EXTT14=
EXTT15=
PLAYORDER=
